inDegrees=no
num_controls=7
num_derivatives=13
num_iterations=171
num_multipliers=7
num_parameters=0
num_slacks=7
num_states=26
objective=5.593959
objective_accelerations=0.572409
objective_balance=0.017116
objective_effort=0.444748
objective_height=4.532559
objective_ligament=0.027127
solver_duration=1423.891105
status=Solve_Succeeded
success=true
DataType=double
version=3
OpenSimVersion=4.4-2022-07-23-0e9fedc
endheader
time	/jointset/ground_pelvis/pelvis_tilt/value	/jointset/ground_pelvis/pelvis_tx/value	/jointset/ground_pelvis/pelvis_ty/value	/jointset/hip_r/hip_flexion_r/value	/jointset/hip_r/hip_adduction_r/value	/jointset/hip_r/hip_rotation_r/value	/jointset/back/lumbar_extension/value	/jointset/patellofemoral_r/patellar_flexion_r/value	/jointset/knee_r/knee_flexion_r/value	/jointset/knee_r/knee_adduction_r/value	/jointset/knee_r/knee_rotation_r/value	/jointset/ankle_r/ankle_angle_r/value	/jointset/subtalar_r/subtalar_angle_r/value	/jointset/ground_pelvis/pelvis_tilt/speed	/jointset/ground_pelvis/pelvis_tx/speed	/jointset/ground_pelvis/pelvis_ty/speed	/jointset/hip_r/hip_flexion_r/speed	/jointset/hip_r/hip_adduction_r/speed	/jointset/hip_r/hip_rotation_r/speed	/jointset/back/lumbar_extension/speed	/jointset/patellofemoral_r/patellar_flexion_r/speed	/jointset/knee_r/knee_flexion_r/speed	/jointset/knee_r/knee_adduction_r/speed	/jointset/knee_r/knee_rotation_r/speed	/jointset/ankle_r/ankle_angle_r/speed	/jointset/subtalar_r/subtalar_angle_r/speed	/forceset/tau_hip_flexion_r	/forceset/tau_hip_adduction_r	/forceset/tau_hip_rotation_r	/forceset/tau_knee_flexion_r	/forceset/tau_ankle_angle_r	/forceset/tau_subtalar_angle_r	/forceset/tau_lumbar_extension	lambda_cid13_p0	lambda_cid14_p0	lambda_cid14_p1	lambda_cid14_p2	lambda_cid14_p3	lambda_cid14_p4	lambda_cid14_p5	/jointset/ground_pelvis/pelvis_tilt/accel	/jointset/ground_pelvis/pelvis_tx/accel	/jointset/ground_pelvis/pelvis_ty/accel	/jointset/hip_r/hip_flexion_r/accel	/jointset/hip_r/hip_adduction_r/accel	/jointset/hip_r/hip_rotation_r/accel	/jointset/back/lumbar_extension/accel	/jointset/patellofemoral_r/patellar_flexion_r/accel	/jointset/knee_r/knee_flexion_r/accel	/jointset/knee_r/knee_adduction_r/accel	/jointset/knee_r/knee_rotation_r/accel	/jointset/ankle_r/ankle_angle_r/accel	/jointset/subtalar_r/subtalar_angle_r/accel	gamma_cid13_p0	gamma_cid14_p0	gamma_cid14_p1	gamma_cid14_p2	gamma_cid14_p3	gamma_cid14_p4	gamma_cid14_p5
1	-0.2337460883242032	-0.003707566231474584	0.6510503844579617	1.38198085883644	-0.2462671101822948	0.0080246555929098	-0.7853981157297945	1.477387121130497	1.477387121130502	-0.05450680103540542	0.1745311863689718	0.4362637622001641	0.1584178251308843	0.06988506355634753	0.005873995472723555	0.01634926077395993	-0.1037770064906101	-0.001390879485259801	-0.006114815412770836	6.689970422817794e-05	-0.02129363807165528	-0.02129363807165539	0.001735963407509035	-1.797481856251259e-05	0.0122736094297733	0.003491414366636424	-0.3312591451412805	0.01635608585689053	0.02562326793102171	-0.4492403178588887	-0.03661434095164593	0.001446943949400548	0.3557350470267671	-0.04112520415751201	-62.8551064667	-11.57011748173285	3.629278434734818	6.579627968752861	-765.027508954942	74.2225327642934	1.302657345800304	0.1798216657412444	1.737795070110201	-5.306673739226322	0.06034247295562452	-1.018794954992166	0.004845966350916164	-4.874187240300722	-4.874187240300717	0.4543758484623381	0.006874742070723043	-1.090164775322034	-0.3902629772314015	5.595565929921955e-10	-2.174782552910489e-09	-6.687834517772775e-10	5.340354904263273e-09	4.457780925703465e-09	-5.962189470363419e-09	-5.048177467672341e-09
1.01	-0.2329832234925987	-0.003639657149484901	0.6513006046736698	1.380678873612202	-0.2462778967905147	0.007913243566007314	-0.7853943242494127	1.476930750172267	1.476930750172275	-0.0544662952443568	0.1745309303440681	0.4363322693072362	0.158433537898605	0.08264403084123099	0.007729176569330492	0.03369183708948537	-0.1566010320864646	-0.0007693730780931271	-0.01616396646843594	0.0009015675036241399	-0.0699797328199699	-0.06997973281997068	0.006371800550053703	-3.157834310129594e-05	0.001454087066660862	-0.0003417053567216851	-0.332300556930844	0.01647353840286059	0.02562407925912148	-0.4490345682712478	-0.03715170128486592	0.001494996820399005	0.3570503516415801	-0.04112046248859186	-63.06440397377653	-11.57747967363229	3.620840323914297	6.403646523224615	-765.8316083128021	74.21460870006202	1.25593601510101	0.191570769967524	1.732045177572703	-5.267415896354551	0.06261747453491036	-0.9974321008987442	0.1543028516214272	-4.865697736449897	-4.86569773645016	0.4691796304041942	-0.005227350224629293	-1.073905585900869	-0.3787600351901756	1.280202046792895e-09	-2.607392700105202e-09	1.080941639430517e-08	1.095363496574718e-08	5.448678983117594e-09	-9.677315393619128e-09	9.737029274255645e-09
1.02	-0.2320940850690859	-0.003552555368860572	0.6517241619055931	1.378849218346683	-0.2462825557846824	0.007701448644558807	-0.7853758809578296	1.475987542837684	1.475987542837692	-0.05437923268524075	0.1745305883938253	0.4362933692666783	0.1584111347560297	0.09513978193685363	0.009712535199652858	0.05101666401699833	-0.2093110147459145	-0.0001653566734218129	-0.02619139432590392	0.002997261898519854	-0.1186609133424067	-0.1186609133424081	0.01104731702274515	-3.515988797612597e-05	-0.009207820060251877	-0.004131767692166519	-0.3333419687204293	0.01659099094884167	0.02562489058715667	-0.4488288186836073	-0.03768906161807316	0.001543049691425777	0.3583656562563768	-0.0411221999918524	-63.28191562564974	-11.58414820960261	3.609856449351172	6.231002507273865	-766.7737866027624	74.21343997391511	1.250014107948153	0.2054571724843253	1.734245192507705	-5.283865151945397	0.05684447245653319	-1.014450315352758	0.2570512854503691	-4.873204395125148	-4.873204395125152	0.4623117144917042	0.008879138003563969	-1.058641728082107	-0.381651499648787	2.145775595640229e-09	-6.775260206393795e-10	2.393247398502721e-08	1.697441691497877e-08	1.313067141445527e-09	-1.240323234644241e-08	2.846645399809016e-08
1.03	-0.2310812636974392	-0.003445121119572043	0.6523208115934097	1.376493304367234	-0.2462812156629923	0.00738953861845163	-0.7853306452505736	1.474557492220688	1.474557492220687	-0.05424519862725417	0.1745302470146854	0.4361482584945962	0.1583509582409005	0.1073829899288469	0.01178153397331345	0.06830343716800527	-0.2618238792511934	0.0004351362007103776	-0.03618294563690255	0.006215549441965847	-0.1673541123817179	-0.1673541123817179	0.01576687146256123	-3.275337160332184e-05	-0.01982610243660399	-0.007905129551940027	-0.3339692270209347	0.0168622902597837	0.02559551085160606	-0.4479834782638517	-0.03882945314689627	0.001621412747700946	0.3591934796955178	-0.04114451468982217	-63.66379571699306	-11.59685031053777	3.58888907602404	6.441293043029382	-767.1299062733381	74.10977649613292	1.20524931289236	0.2087035264494374	1.724414879353688	-5.227811528894023	0.06191888776339099	-0.99035859032451	0.3790679718346494	-4.868113614991115	-4.868113614991044	0.4778864445907728	-0.004017100005381384	-1.065187927001786	-0.3754089913084683	3.012828002600284e-09	1.276447565220951e-09	3.707231583844967e-08	2.29993570467384e-08	-2.87485602572745e-09	-1.511905533017964e-08	4.723612584418905e-08
